<?xml version="1.0" encoding="UTF-8" standalone="no"?>
<svg
   version="1.1"
   viewBox="0 0 599.99998 599.99998"
   id="svg1117"
   sodipodi:docname="favicon.svg"
   inkscape:version="1.2.2 (732a01da63, 2022-12-09)"
   width="600"
   height="600"
   inkscape:export-filename="favicon.png"
   inkscape:export-xdpi="96"
   inkscape:export-ydpi="96"
   xmlns:inkscape="http://www.inkscape.org/namespaces/inkscape"
   xmlns:sodipodi="http://sodipodi.sourceforge.net/DTD/sodipodi-0.dtd"
   xmlns="http://www.w3.org/2000/svg"
   xmlns:svg="http://www.w3.org/2000/svg">
  <defs
     id="defs1121" />
  <sodipodi:namedview
     id="namedview1119"
     pagecolor="#ffffff"
     bordercolor="#000000"
     borderopacity="0.25"
     inkscape:showpageshadow="2"
     inkscape:pageopacity="0.0"
     inkscape:pagecheckerboard="0"
     inkscape:deskcolor="#d1d1d1"
     showgrid="true"
     inkscape:zoom="0.25797873"
     inkscape:cx="69.773194"
     inkscape:cy="-1.9381443"
     inkscape:window-width="1280"
     inkscape:window-height="730"
     inkscape:window-x="-6"
     inkscape:window-y="-6"
     inkscape:window-maximized="1"
     inkscape:current-layer="svg1117" />
  <rect
     style="fill:#1d2427;stroke-width:2.24083;stroke-linecap:round;stroke-linejoin:round;fill-opacity:1"
     id="rect955"
     width="600"
     height="600"
     x="0"
     y="0"
     rx="117.61698"
     ry="117.61698" />
  <path
     fill="#000000"
     d="m 151.13838,484.62044 q 0,-12.94388 -1.90229,-25.6603 c -0.57896,-3.90798 0.59963,-7.11293 4.92115,-7.00954 a 1.633492,1.6128149 83.5 0 1 1.50943,1.21995 q 3.12225,11.72392 15.79732,9.01522 a 1.5094294,1.5094294 0 0 1 1.65416,0.80641 q 2.68802,5.56214 5.60349,10.71074 c 2.83277,4.98318 6.30653,5.91365 11.57919,4.48694 q 0.95115,-0.24813 0.84776,-1.26131 -1.11657,-10.52465 1.81959,-15.40445 6.78209,-11.24835 9.0359,-24.25425 0.78573,-4.50762 7.91933,-14.9082 c 9.11861,-13.29539 5.83095,-36.80527 9.07726,-50.76232 q 0.84776,-3.65985 7.48511,-15.79732 1.96433,-3.57714 4.54897,-4.61099 0.95115,-0.37219 1.75756,-1.03386 l 5.39672,-4.40422 a 2.171097,2.1504199 48.6 0 0 0.1861,-3.1636 q -9.05658,-9.44944 -14.82549,-20.18087 c -2.99819,-5.58282 -1.71621,-11.2897 -3.01886,-17.36877 q -3.14293,-14.6394 -1.19928,-29.58896 a 3.5564637,3.5978179 69.2 0 1 0.84776,-1.86093 q 10.83481,-12.26153 5.97569,-29.13406 -4.30084,-15.03227 -5.39673,-30.64349 -0.37219,-5.31402 1.59214,-10.7521 c 3.41172,-9.42876 5.10725,-20.3256 16.45899,-24.10951 25.61894,-8.53965 44.02157,-5.37606 58.41285,19.00227 a 2.2538055,2.2538055 0 0 0 3.68052,0.2688 q 7.11293,-8.7671 18.38195,-5.70688 a 1.0545329,1.0545329 0 0 0 1.1786,-1.57146 q -0.39286,-0.62032 -1.38537,-0.99251 -8.581,-3.20495 -18.63008,-8.581 c -10.71074,-5.74824 -21.60758,-14.41196 -32.35968,-21.75233 -7.60918,-5.21064 -14.9082,-6.28584 -23.67529,-7.4024 q -7.0509,-0.88912 -11.02091,-3.26699 c -8.80845,-5.23131 -16.83117,-13.87434 -14.20518,-25.01931 a 1.0338558,1.0545329 13.6 0 1 1.2613,-0.78573 c 7.65054,1.81958 13.58487,3.12224 21.46285,6.76142 q 17.47216,8.10543 37.19813,4.40422 a 1.0338558,1.0338558 0 0 0 0.641,-1.63349 q -1.61282,-2.1711 -5.41742,-4.48693 -13.87434,-8.43627 -27.29378,-10.04908 c -9.80095,-1.15792 -17.86503,-6.26517 -25.82572,-11.43445 a 1.3026582,1.3026582 0 0 1 -0.57896,-1.34401 q 1.86094,-10.710744 9.59419,-18.19586 0.84775,-0.827084 1.96432,-0.454899 7.8573,2.64667 15.88003,4.073391 c 8.68438,1.53011 15.05293,5.830948 22.84821,9.304698 q 1.2613,0.57897 2.12974,-0.496244 l 10.7521,-13.026583 a 1.3646896,1.4060438 16 0 1 0.82708,-0.475574 c 9.49079,-1.447396 19.53988,2.64667 27.35582,1.757557 q 10.31788,-1.178599 21.60759,-8.043399 4.61099,-2.812088 8.06407,-2.460577 5.85162,0.578957 9.90434,5.107247 0.68235,0.744376 0.062,1.550785 c -5.02451,6.533968 -11.66186,13.316059 -9.84228,19.829358 q 0.20678,0.78572 1.01318,1.01317 l 7.17496,1.9023 q 1.11656,0.28947 2.04704,-0.39287 c 7.34037,-5.35537 17.4308,-13.750282 24.68847,-2.08839 q 0.57896,0.9098 -0.24812,1.61282 c -3.99069,3.45308 -14.88753,11.14496 -16.60373,15.67325 q -1.0752,2.81209 -0.24812,4.52829 8.14678,17.36877 8.3122,24.29561 c 0.22745,10.62803 3.63917,26.69415 2.93614,40.71324 q -0.0413,0.86844 -0.47557,1.59214 l -1.985,3.39105 q -0.93047,1.55078 0.84776,1.90229 11.70325,2.39854 20.84253,1.05453 c 6.92683,-1.01317 39.34855,-5.35537 48.81867,2.21245 q 4.8798,3.8873 8.22949,8.99455 2.56397,3.90797 4.17678,11.207 c 2.91547,13.2747 7.67121,25.49488 1.96433,39.45194 q -2.08839,5.16928 -2.25381,9.36674 -0.39286,11.47579 -0.24813,22.8482 c 0.062,4.90048 2.46058,9.05658 2.72938,13.89502 q 0.64099,11.91002 0.66167,33.08339 c 0,7.71256 -5.04522,18.25789 -4.03203,28.69983 1.65416,17.20336 0.14473,27.52124 -4.73507,44.49715 -4.90047,17.12065 -12.44762,30.10588 -23.86139,42.86366 q -2.60531,2.91547 -5.81027,8.4983 c -2.5226,4.40422 -5.91365,6.80276 -7.83662,11.47579 q -5.56215,13.58486 -12.90252,20.84253 -6.47194,6.36856 -10.17314,11.43445 c -4.44558,6.03771 -10.71075,14.39128 -17.32742,16.64507 -10.13179,3.47376 -20.6978,11.49648 -31.63599,11.93071 -4.05271,0.16541 -7.09225,1.24062 -11.0209,1.69554 q -1.09588,0.14471 -1.96433,-0.53765 c -6.98886,-5.4794 -16.14882,-7.17493 -21.773,-11.84797 q -11.49648,-9.59418 -9.51147,-25.78436 0.16542,-1.38536 0.86844,-0.18609 l 6.8648,11.97205 a 1.2406269,1.1165642 1.6 0 0 0.47557,0.45489 l 5.76892,3.30834 a 1.095887,1.1165642 24.9 0 0 1.57146,-0.57896 l 0.22745,-0.68235 q 0.37218,-1.01317 -0.41354,-1.75755 -6.67871,-6.38923 -4.48694,-15.9007 0.35151,-1.53011 1.15792,-0.16542 7.56783,12.77846 17.24471,17.0793 4.75574,2.10906 11.18632,-2.12974 0.93048,-0.62031 0.93048,-1.73688 l -0.062,-8.47762 a 1.4060438,1.3853667 19.1 0 1 2.27448,-1.09589 l 8.74643,7.03023 a 1.1992727,1.1165642 58.3 0 0 0.90979,0.24812 l 14.24653,-2.00568 q 1.05453,-0.14474 1.42672,-1.13724 l 13.41945,-35.44057 q 0.33083,-0.86844 0.2688,-1.77824 c -0.53761,-8.64303 3.63917,-15.85935 5.02454,-22.3106 1.40604,-6.63736 3.03954,-12.71643 3.06021,-19.62258 0.0207,-9.55283 -1.0752,-20.11883 2.79141,-29.07203 q 3.26698,-7.5885 6.65803,-15.11497 0.39287,-0.84776 1.26131,-1.19927 5.97568,-2.35719 10.31788,-7.25767 a 1.1992727,1.1992727 0 0 0 -0.2688,-1.79891 c -4.83845,-3.03953 -9.4908,-4.77641 -12.71643,-9.53215 q -5.91366,-8.70506 -8.89116,-18.75414 -0.35151,-1.13724 -1.5301,-1.07521 c -5.97569,0.41354 -7.13361,4.73506 -5.95501,9.84231 a 1.1785955,1.1785955 0 0 0 1.15791,0.93047 l 0.9925,0.0207 q 0.57896,0 0.80641,0.51693 5.43808,12.26153 5.29334,25.51556 0,1.09588 -1.09589,1.11656 -18.91956,0.49625 -25.14337,-1.84026 -9.07725,-3.41173 -18.67143,-4.07339 c -6.09975,-0.43422 -10.23517,-4.30084 -15.73529,-4.4249 -9.82162,-0.20678 -23.01362,1.46807 -31.53259,-4.38356 q -3.06021,-2.10906 -4.11475,1.4474 -2.99818,10.13179 -7.46444,21.40081 c -0.78573,1.96433 -0.39286,6.34788 -1.05453,7.5058 q -19.58123,33.62099 -45.28288,62.71369 -3.51511,3.97001 -6.84413,10.21449 c -5.16928,9.73892 -13.68825,17.69961 -21.46284,25.14337 -2.8948,2.77073 -5.4174,3.94934 -9.67689,4.13543 -16.2729,0.72369 -31.88411,3.18427 -47.7021,-2.02636 q -5.62418,-1.86094 -8.95319,-5.64485 c -3.65989,-4.13544 -11.43448,-15.13566 -8.93255,-20.90458 q 4.44558,-10.2972 14.99091,-14.66007 a 0.55828211,0.55828211 0 0 1 0.64098,0.86844 c -2.95682,3.4324 -4.11474,7.60917 -6.43058,12.61304 -3.72188,7.94001 5.02454,16.02476 12.22018,17.74096 q 1.17859,0.28948 1.17859,-0.93047 z"
     id="path1115"
     style="fill:#f2f2f2;fill-opacity:1;stroke-width:2.06771" />
</svg>
