<svg xmlns="http://www.w3.org/2000/svg" width="684.516" height="963.197" viewBox="0 0 181.111 254.846" xml:space="preserve"><path d="M-209.944 233.47q0-7.15-1.05-14.173c-.32-2.159.33-3.929 2.718-3.872a.902.89 83.5 0 1 .833.674q1.725 6.476 8.726 4.98a.834.834 0 0 1 .914.445q1.484 3.072 3.095 5.916c1.564 2.752 3.483 3.266 6.395 2.478q.526-.137.469-.696-.617-5.814 1.005-8.509 3.746-6.213 4.99-13.397.435-2.49 4.375-8.234c5.036-7.344 3.22-20.33 5.014-28.038q.468-2.021 4.134-8.726 1.085-1.976 2.512-2.547.526-.205.971-.57l2.981-2.433a1.2 1.188 48.6 0 0 .103-1.748q-5.003-5.219-8.189-11.147c-1.656-3.083-.948-6.235-1.667-9.593q-1.736-8.086-.663-16.343a1.964 1.987 69.2 0 1 .469-1.028q5.984-6.773 3.3-16.092-2.375-8.303-2.98-16.925-.206-2.936.879-5.94c1.884-5.207 2.82-11.226 9.09-13.316 14.151-4.717 24.316-2.97 32.265 10.495a1.245 1.245 0 0 0 2.032.149q3.93-4.843 10.154-3.152a.582.582 0 0 0 .65-.868q-.216-.343-.765-.548-4.74-1.77-10.29-4.74c-5.916-3.175-11.934-7.96-17.873-12.015-4.203-2.878-8.235-3.472-13.077-4.089q-3.895-.49-6.088-1.804c-4.865-2.89-9.296-7.663-7.846-13.82a.571.582 13.6 0 1 .697-.433c4.226 1.005 7.503 1.724 11.855 3.735q9.65 4.476 20.546 2.432a.571.571 0 0 0 .354-.902q-.89-1.2-2.992-2.478-7.664-4.66-15.076-5.55c-5.413-.64-9.867-3.462-14.264-6.317a.72.72 0 0 1-.32-.742q1.028-5.916 5.3-10.05.467-.457 1.084-.252 4.34 1.462 8.771 2.25c4.797.845 8.315 3.221 12.62 5.14q.697.32 1.177-.274l5.938-7.196a.754.777 16 0 1 .457-.262c5.243-.8 10.793 1.462 15.11.97q5.7-.65 11.935-4.442 2.547-1.553 4.454-1.36 3.232.32 5.47 2.822.378.41.035.856c-2.776 3.61-6.442 7.355-5.437 10.953q.115.434.56.56l3.963 1.05q.617.16 1.13-.217c4.055-2.958 9.629-7.595 13.637-1.154q.32.503-.137.892c-2.204 1.907-8.223 6.155-9.17 8.657q-.595 1.553-.138 2.5 4.5 9.594 4.591 13.42c.126 5.87 2.01 14.744 1.622 22.488q-.023.48-.262.88l-1.097 1.872q-.514.857.468 1.05 6.465 1.326 11.512.583c3.826-.56 21.734-2.958 26.965 1.223q2.696 2.147 4.546 4.968 1.416 2.158 2.307 6.19c1.61 7.332 4.237 14.081 1.085 21.79q-1.154 2.856-1.245 5.174-.217 6.339-.137 12.62c.034 2.707 1.359 5.003 1.507 7.675q.354 6.578.366 18.273c0 4.26-2.787 10.085-2.227 15.853.913 9.502.08 15.2-2.616 24.577-2.706 9.456-6.875 16.63-13.18 23.676q-1.438 1.61-3.209 4.693c-1.393 2.433-3.266 3.758-4.328 6.339q-3.072 7.504-7.127 11.512-3.574 3.518-5.619 6.316c-2.455 3.335-5.916 7.95-9.57 9.194-5.596 1.919-11.433 6.35-17.474 6.59-2.239.091-3.918.685-6.088.936q-.605.08-1.084-.297c-3.86-3.026-8.92-3.963-12.027-6.544q-6.35-5.3-5.253-14.242.091-.765.48-.102l3.791 6.612a.685.616 1.6 0 0 .263.252l3.186 1.827a.605.616 24.9 0 0 .868-.32l.126-.377q.205-.56-.229-.97-3.689-3.53-2.478-8.783.194-.845.64-.092 4.18 7.058 9.525 9.434 2.626 1.165 6.178-1.176.514-.343.514-.96l-.034-4.682a.777.765 19.1 0 1 1.256-.606l4.831 3.883a.663.616 58.3 0 0 .503.137l7.869-1.107q.582-.08.788-.629l7.412-19.575q.182-.48.148-.982c-.297-4.774 2.01-8.76 2.776-12.323.776-3.666 1.679-7.024 1.69-10.838.011-5.277-.594-11.113 1.542-16.058q1.804-4.192 3.677-8.349.217-.468.697-.662 3.3-1.302 5.7-4.009a.663.663 0 0 0-.15-.993c-2.672-1.68-5.242-2.639-7.023-5.266q-3.267-4.808-4.911-10.358-.195-.628-.845-.594c-3.301.228-3.94 2.615-3.29 5.436a.65.65 0 0 0 .64.514l.548.012q.32 0 .446.285 3.003 6.773 2.923 14.093 0 .606-.605.617-10.45.274-13.888-1.016-5.014-1.885-10.313-2.25c-3.37-.24-5.653-2.376-8.691-2.444-5.425-.114-12.712.81-17.417-2.421q-1.69-1.165-2.273.799-1.656 5.596-4.123 11.82c-.434 1.086-.217 3.507-.582 4.147q-10.816 18.57-25.012 34.639-1.941 2.193-3.78 5.642c-2.855 5.379-7.56 9.776-11.855 13.887-1.599 1.53-2.992 2.182-5.345 2.285-8.988.4-17.61 1.758-26.348-1.12q-3.106-1.028-4.945-3.117c-2.021-2.285-6.315-8.36-4.934-11.547q2.456-5.688 8.28-8.097a.308.308 0 0 1 .354.48c-1.633 1.895-2.272 4.202-3.551 6.966-2.056 4.385 2.775 8.851 6.75 9.8q.65.159.65-.515z" style="stroke-width:1.14208;fill:#fff;fill-opacity:1;stroke:none" transform="translate(222.696 -8.492)"/></svg>