<?xml version="1.0" encoding="UTF-8" standalone="no"?>
<!-- Created with Inkscape (http://www.inkscape.org/) -->
<!-- http://www.misumi.co.jp/english/ir/library/pdf/ar08_e.pdf -->
<svg xmlns:svg="http://www.w3.org/2000/svg" xmlns="http://www.w3.org/2000/svg" version="1.0" width="250" height="65.762535">
  <path d="M 114.24955,53.154291 L 123.13372,53.154291 L 123.13372,22.401661 L 114.24955,22.401661 L 114.24955,53.154291 z M 114.24955,18.48854 L 123.13372,18.48854 L 123.13372,9.0944992 L 114.24955,9.0944992 L 114.24955,18.48854 z M 241.11581,53.154291 L 250,53.154291 L 250,22.401661 L 241.11581,22.401661 L 241.11581,53.154291 z M 241.11581,18.48854 L 250,18.48854 L 250,9.0944992 L 241.11581,9.0944992 L 241.11581,18.48854 z M 82.07995,9.0944992 L 88.374509,40.197653 L 88.497724,40.197653 L 94.851766,9.0944992 L 107.9911,9.0944992 L 107.9911,53.154291 L 99.856822,53.154291 L 99.856822,17.982935 L 99.733608,17.982935 L 91.892495,53.154291 L 84.977614,53.154291 L 77.136501,17.982935 L 77.013286,17.982935 L 77.013286,53.154291 L 68.876883,53.154291 L 68.876883,9.0944992 L 82.07995,9.0944992 z M 136.61295,40.703257 C 136.61295,41.73146 136.69368,42.668315 136.85726,43.511697 C 137.02296,44.357203 137.331,45.064624 137.78349,45.642457 C 138.23599,46.218166 138.84144,46.670661 139.60197,46.997816 C 140.36462,47.329221 141.31847,47.494923 142.46989,47.494923 C 143.82737,47.494923 145.05102,47.053051 146.14083,46.165057 C 147.22852,45.279187 147.77448,43.911082 147.77448,42.058616 C 147.77448,41.070776 147.64065,40.218897 147.37298,39.496605 C 147.1053,38.776438 146.66343,38.126375 146.04736,37.550666 C 145.43129,36.972833 144.61764,36.448109 143.61069,35.976495 C 142.60373,35.502757 141.36096,35.016272 139.88026,34.525539 C 137.90671,33.864854 136.1987,33.144687 134.76049,32.362913 C 133.32228,31.581138 132.11775,30.665527 131.15115,29.61608 C 130.18668,28.564508 129.47714,27.349359 129.02677,25.972756 C 128.57215,24.591904 128.34696,22.996489 128.34696,21.186511 C 128.34696,16.820896 129.55999,13.570583 131.98604,11.427076 C 134.41209,9.2878184 137.74525,8.2150028 141.98128,8.2150028 C 143.95484,8.2150028 145.77544,8.4338147 147.44096,8.8650653 C 149.10648,9.2963159 150.54681,9.993115 151.75983,10.961836 C 152.97286,11.928432 153.91821,13.162701 154.59802,14.662518 C 155.2757,16.166584 155.6156,17.96594 155.6156,20.064835 L 155.6156,21.299104 L 147.09043,21.299104 C 147.09043,19.200209 146.72079,17.585675 145.9815,16.453377 C 145.24221,15.323203 144.01007,14.755991 142.28507,14.755991 C 141.29723,14.755991 140.47509,14.902574 139.81865,15.189366 C 139.16009,15.476158 138.63749,15.858548 138.24661,16.332287 C 137.85572,16.8039 137.59017,17.349868 137.44784,17.96594 C 137.30338,18.584137 137.23115,19.223578 137.23115,19.880013 C 137.23115,21.239621 137.51794,22.380417 138.09578,23.308774 C 138.67148,24.232883 139.90575,25.089011 141.79858,25.870785 L 148.64973,28.834305 C 150.33862,29.575717 151.71735,30.344745 152.78804,31.147763 C 153.85873,31.952906 154.71273,32.815407 155.35005,33.74164 C 155.98737,34.667873 156.42924,35.687579 156.67567,36.798633 C 156.92422,37.909688 157.04743,39.143957 157.04743,40.503565 C 157.04743,45.153848 155.69845,48.540122 153.00473,50.66026 C 150.30888,52.780399 146.55509,53.838343 141.7391,53.838343 C 136.71917,53.838343 133.12896,52.750657 130.96846,50.57316 C 128.80795,48.395663 127.72877,45.27069 127.72877,41.198239 L 127.72877,39.405256 L 136.61295,39.405256 L 136.61295,40.703257 z M 170.22288,39.838631 C 170.22288,40.949686 170.29299,41.967267 170.43745,42.8935 C 170.58403,43.819733 170.8517,44.622752 171.24047,45.300431 C 171.63348,45.980235 172.16882,46.517705 172.84863,46.906468 C 173.52631,47.297355 174.38243,47.494923 175.41276,47.494923 C 176.48558,47.494923 177.34808,47.297355 178.00664,46.906468 C 178.66732,46.517705 179.18992,45.980235 179.58293,45.300431 C 179.97382,44.622752 180.24362,43.819733 180.38595,42.8935 C 180.53041,41.967267 180.60476,40.949686 180.60476,39.838631 L 180.60476,9.0944992 L 189.48683,9.0944992 L 189.48683,39.82801 C 189.48683,42.627952 189.09594,44.94141 188.31417,46.772631 C 187.53239,48.603853 186.48294,50.05481 185.16582,51.123377 C 183.8487,52.191943 182.34676,52.912111 180.65787,53.281754 C 178.97324,53.653522 177.22274,53.838343 175.41276,53.838343 C 173.60066,53.838343 171.85229,53.674766 170.16553,53.343361 C 168.47664,53.016206 166.97682,52.347024 165.6597,51.340064 C 164.34258,50.33098 163.29526,48.901267 162.51136,47.050926 C 161.72958,45.19846 161.3387,42.79153 161.3387,39.82801 L 161.3387,9.0944992 L 170.22288,9.0944992 L 170.22288,39.838631 z M 208.94622,9.0944992 L 215.24077,40.197653 L 215.36399,40.197653 L 221.71803,9.0944992 L 234.85949,9.0944992 L 234.85949,53.154291 L 226.72096,53.154291 L 226.72096,17.982935 L 226.59987,17.982935 L 218.75876,53.154291 L 211.84388,53.154291 L 204.00277,17.982935 L 203.87955,17.982935 L 203.87955,53.154291 L 195.74315,53.154291 L 195.74315,9.0944992 L 208.94622,9.0944992 z M 21.188638,65.762529 L 35.266953,55.04712 L 35.266953,48.856655 L 37.7015,53.339112 L 52.024119,42.377274 L 52.017746,17.392356 L 30.835481,-2.6560799e-06 L 24.989167,4.4824544 L 24.989167,26.193692 L 5.8463135,19.000517 L -2.0106198e-07,23.238669 L -2.0106198e-07,48.421156 L 21.188638,65.762529 z" style="fill:#221814;fill-opacity:1;fill-rule:nonzero;stroke:none"/>
  <path d="M 1.7568681,25.575495 L 1.7568681,47.785964 L 20.164684,62.983831 L 20.164684,40.769113 L 1.7568681,25.575495 z M 26.739662,8.4763025 L 36.970711,28.058904 L 36.970711,48.325559 L 35.218092,44.918041 L 35.218092,29.962355 L 26.739662,26.743908 L 26.739662,8.4763025 z" style="fill:#ffffff;fill-opacity:1;fill-rule:nonzero;stroke:none"/>
  <path d="M 21.82383,41.066527 L 33.465472,32.299181 L 33.465472,54.363067 L 21.82383,63.179274 L 21.82383,41.066527 z M 50.2715,19.584723 L 50.2715,41.654983 L 38.725455,50.564663 L 38.725455,28.35207 L 50.2715,19.584723 z" style="fill:#fdd000;fill-opacity:1;fill-rule:nonzero;stroke:none"/>
  <path d="M 2.3389502,23.676293 L 6.1373546,20.753136 L 32.734683,30.688896 L 21.188638,39.454117 L 2.3389502,23.676293 z M 30.882217,2.1456285 L 26.939355,5.1665071 L 38.141248,26.597326 L 49.978334,17.834228 L 30.882217,2.1456285 z" style="fill:#005bac;fill-opacity:1;fill-rule:nonzero;stroke:none"/>
</svg>